name rise49.25peak52.1432fall72.8391.mot
datacolumns 19
datarows 23
range 24.29658100000000 24.33324300000000
endheader
time	ground_force1_vx	ground_force1_vy	ground_force1_vz	ground_force1_px	ground_force1_py	ground_force1_pz	ground_force2_vx	ground_force2_vy	ground_force2_vz	ground_force2_px	ground_force2_py	ground_force2_pz	ground_torque1_x	ground_torque1_y	ground_torque1_z	ground_torque2_x	ground_torque2_y	ground_torque2_z	
24.29658100000000	-49.80279900000000	787.45550100000003	51.80167800000000	0.12342800000000	0.00000000000000	0.10592900000000	-1.75612500000000	28.49922700000000	4.42121100000000	0.30383800000000	0.00000000000000	-0.05981000000000	0.00000000000000	22.78948400000000	0.00000000000000	0.00000000000000	2.69082900000000	0.00000000000000	
24.29823800000000	-50.15264300000000	785.76152700000000	51.68893300000000	0.12280300000000	0.00000000000000	0.10586600000000	-2.02495000000000	35.05199700000000	5.24889600000000	0.31287400000000	0.00000000000000	-0.06021800000000	0.00000000000000	22.71660900000000	0.00000000000000	0.00000000000000	3.25197000000000	0.00000000000000	
24.29990600000000	-50.50728700000000	783.96139200000005	51.55775400000000	0.12219800000000	0.00000000000000	0.10579800000000	-2.26337400000000	41.86688100000000	6.05401400000000	0.32109100000000	0.00000000000000	-0.06057700000000	0.00000000000000	22.64195500000000	0.00000000000000	0.00000000000000	3.81265600000000	0.00000000000000	
24.30157200000000	-50.86696900000000	782.05261700000005	51.40773000000000	0.12161300000000	0.00000000000000	0.10572500000000	-2.45964800000000	48.81467900000000	6.81212100000000	0.32860400000000	0.00000000000000	-0.06089700000000	0.00000000000000	22.56558100000000	0.00000000000000	0.00000000000000	4.35603800000000	0.00000000000000	
24.30324000000000	-51.23190200000000	780.03273999999999	51.23846800000000	0.12104800000000	0.00000000000000	0.10564700000000	-2.60389200000000	55.77868200000000	7.50236800000000	0.33550500000000	0.00000000000000	-0.06118600000000	0.00000000000000	22.48753500000000	0.00000000000000	0.00000000000000	4.86708300000000	0.00000000000000	
24.30490300000000	-51.60227400000000	777.89932199999998	51.04960000000000	0.12050400000000	0.00000000000000	0.10556400000000	-2.68857200000000	62.66214800000000	8.10864700000000	0.34186800000000	0.00000000000000	-0.06145000000000	0.00000000000000	22.40786200000000	0.00000000000000	0.00000000000000	5.33349800000000	0.00000000000000	
24.30657300000000	-51.97824300000000	775.64995299999998	50.84078300000000	0.11998000000000	0.00000000000000	0.10547600000000	-2.70872200000000	69.39308000000000	8.62019500000000	0.34775300000000	0.00000000000000	-0.06169300000000	0.00000000000000	22.32659900000000	0.00000000000000	0.00000000000000	5.74629900000000	0.00000000000000	
24.30823500000000	-52.35993500000000	773.28225199999997	50.61170100000000	0.11947400000000	0.00000000000000	0.10538300000000	-2.66193000000000	75.92623100000000	9.03167200000000	0.35320900000000	0.00000000000000	-0.06192000000000	0.00000000000000	22.24377600000000	0.00000000000000	0.00000000000000	6.10003200000000	0.00000000000000	
24.30990300000000	-52.74744100000000	770.79387699999995	50.36206400000000	0.11898700000000	0.00000000000000	0.10528500000000	-2.54811900000000	82.24258000000000	9.34278400000000	0.35827700000000	0.00000000000000	-0.06213400000000	0.00000000000000	22.15941600000000	0.00000000000000	0.00000000000000	6.39266300000000	0.00000000000000	
24.31156900000000	-53.14081700000000	768.18252500000006	50.09161400000000	0.11851800000000	0.00000000000000	0.10518200000000	-2.36917900000000	88.34674400000000	9.55755100000000	0.36299300000000	0.00000000000000	-0.06233800000000	0.00000000000000	22.07353500000000	0.00000000000000	0.00000000000000	6.62520700000000	0.00000000000000	
24.31323700000000	-53.54007500000000	765.44593999999995	49.80012400000000	0.11806600000000	0.00000000000000	0.10507400000000	-2.12850800000000	94.26289700000000	9.68335400000000	0.36738500000000	0.00000000000000	-0.06253400000000	0.00000000000000	21.98613900000000	0.00000000000000	0.00000000000000	6.80116500000000	0.00000000000000	
24.31491100000000	-53.94518600000000	762.58191899999997	49.48739800000000	0.11763000000000	0.00000000000000	0.10496200000000	-1.83050400000000	100.02979999999999	9.72987000000000	0.37147800000000	0.00000000000000	-0.06272400000000	0.00000000000000	21.89722900000000	0.00000000000000	0.00000000000000	6.92585500000000	0.00000000000000	
24.31657500000000	-54.35607600000000	759.58831399999997	49.15327500000000	0.11720900000000	0.00000000000000	0.10484500000000	-1.48008200000000	105.69549499999999	9.70800100000000	0.37529400000000	0.00000000000000	-0.06291000000000	0.00000000000000	21.80679800000000	0.00000000000000	0.00000000000000	7.00569700000000	0.00000000000000	
24.31824000000000	-54.77262200000000	756.46303799999998	48.79763000000000	0.11680100000000	0.00000000000000	0.10472300000000	-1.08222300000000	111.31217300000000	9.62889500000000	0.37885200000000	0.00000000000000	-0.06309300000000	0.00000000000000	21.71482900000000	0.00000000000000	0.00000000000000	7.04754800000000	0.00000000000000	
24.31991800000000	-55.19465000000000	753.20407299999999	48.42037500000000	0.11640600000000	0.00000000000000	0.10459700000000	-0.64160800000000	116.93156999999999	9.50311200000000	0.38216700000000	0.00000000000000	-0.06327300000000	0.00000000000000	21.62130200000000	0.00000000000000	0.00000000000000	7.05809700000000	0.00000000000000	
24.32157300000000	-55.62193100000000	749.80947100000003	48.02146000000000	0.11602300000000	0.00000000000000	0.10446600000000	-0.16233600000000	122.60119100000000	9.33997800000000	0.38525500000000	0.00000000000000	-0.06345300000000	0.00000000000000	21.52618400000000	0.00000000000000	0.00000000000000	7.04339300000000	0.00000000000000	
24.32323800000000	-56.05418200000000	746.27736300000004	47.60087300000000	0.11564800000000	0.00000000000000	0.10433100000000	0.35224900000000	128.36148700000001	9.14714900000000	0.38812700000000	0.00000000000000	-0.06363200000000	0.00000000000000	21.42944000000000	0.00000000000000	0.00000000000000	7.00849700000000	0.00000000000000	
24.32492200000000	-56.49106200000000	742.60596199999998	47.15864400000000	0.11528200000000	0.00000000000000	0.10419200000000	0.89965500000000	134.24403500000000	8.93037500000000	0.39079400000000	0.00000000000000	-0.06381200000000	0.00000000000000	21.33102500000000	0.00000000000000	0.00000000000000	6.95727700000000	0.00000000000000	
24.32656900000000	-56.93216900000000	738.79357000000005	46.69484600000000	0.11492300000000	0.00000000000000	0.10404900000000	1.47824000000000	140.27069700000001	8.69345100000000	0.39326800000000	0.00000000000000	-0.06399200000000	0.00000000000000	21.23088800000000	0.00000000000000	0.00000000000000	6.89233200000000	0.00000000000000	
24.32823600000000	-57.37703900000000	734.83858099999998	46.20959200000000	0.11456800000000	0.00000000000000	0.10390200000000	2.08714700000000	146.45362000000000	8.43832400000000	0.39555600000000	0.00000000000000	-0.06417400000000	0.00000000000000	21.12897400000000	0.00000000000000	0.00000000000000	6.81503000000000	0.00000000000000	
24.32991000000000	-57.82514200000000	730.73948700000005	45.70304000000000	0.11421700000000	0.00000000000000	0.10375200000000	2.72618600000000	152.79593700000001	8.16531700000000	0.39766800000000	0.00000000000000	-0.06435800000000	0.00000000000000	21.02521800000000	0.00000000000000	0.00000000000000	6.72563800000000	0.00000000000000	
24.33157400000000	-58.27588700000000	726.49488199999996	45.17539300000000	0.11386600000000	0.00000000000000	0.10359800000000	3.39568800000000	159.29299000000000	7.87344000000000	0.39961100000000	0.00000000000000	-0.06454300000000	0.00000000000000	20.91955300000000	0.00000000000000	0.00000000000000	6.62351000000000	0.00000000000000	
24.33324300000000	-58.72861400000000	722.10346900000002	44.62689800000000	0.11351600000000	0.00000000000000	0.10344000000000	4.09633400000000	165.93387700000000	7.56073200000000	0.40139000000000	0.00000000000000	-0.06473100000000	0.00000000000000	20.81190600000000	0.00000000000000	0.00000000000000	6.50732100000000	0.00000000000000	
